<svg width="43" height="43" viewBox="0 0 43 43" fill="none" xmlns="http://www.w3.org/2000/svg">
<g id="mdi:user">
<path id="Vector" d="M21.5 7.16675C23.4007 7.16675 25.2235 7.92181 26.5676 9.26582C27.9116 10.6098 28.6666 12.4327 28.6666 14.3334C28.6666 16.2341 27.9116 18.057 26.5676 19.401C25.2235 20.745 23.4007 21.5001 21.5 21.5001C19.5992 21.5001 17.7764 20.745 16.4324 19.401C15.0883 18.057 14.3333 16.2341 14.3333 14.3334C14.3333 12.4327 15.0883 10.6098 16.4324 9.26582C17.7764 7.92181 19.5992 7.16675 21.5 7.16675ZM21.5 25.0834C29.4191 25.0834 35.8333 28.2905 35.8333 32.2501V35.8334H7.16663V32.2501C7.16663 28.2905 13.5808 25.0834 21.5 25.0834Z" fill="#F8F8F8"/>
</g>
</svg>
