<svg width="24" height="24" viewBox="0 0 24 24" fill="none" xmlns="http://www.w3.org/2000/svg">
<g id="mingcute:user-4-fill" clip-path="url(#clip0_7_28)">
<g id="Group">
<path id="Vector" fill-rule="evenodd" clip-rule="evenodd" d="M12 2C6.477 2 2 6.477 2 12C2 17.523 6.477 22 12 22C17.523 22 22 17.523 22 12C22 6.477 17.523 2 12 2ZM8.5 9.5C8.5 9.04037 8.59053 8.58525 8.76642 8.16061C8.94231 7.73597 9.20012 7.35013 9.52513 7.02513C9.85013 6.70012 10.236 6.44231 10.6606 6.26642C11.0852 6.09053 11.5404 6 12 6C12.4596 6 12.9148 6.09053 13.3394 6.26642C13.764 6.44231 14.1499 6.70012 14.4749 7.02513C14.7999 7.35013 15.0577 7.73597 15.2336 8.16061C15.4095 8.58525 15.5 9.04037 15.5 9.5C15.5 10.4283 15.1313 11.3185 14.4749 11.9749C13.8185 12.6313 12.9283 13 12 13C11.0717 13 10.1815 12.6313 9.52513 11.9749C8.86875 11.3185 8.5 10.4283 8.5 9.5ZM18.258 16.984C17.5094 17.9256 16.5578 18.686 15.4742 19.2082C14.3905 19.7305 13.2029 20.0011 12 20C10.7971 20.0011 9.60946 19.7305 8.52583 19.2082C7.4422 18.686 6.49056 17.9256 5.742 16.984C7.363 15.821 9.575 15 12 15C14.425 15 16.637 15.821 18.258 16.984Z" fill="#69717C"/>
</g>
</g>
<defs>
<clipPath id="clip0_7_28">
<rect width="24" height="24" fill="white"/>
</clipPath>
</defs>
</svg>
