<svg width="20" height="19" viewBox="0 0 20 19" fill="none" xmlns="http://www.w3.org/2000/svg">
<g id="ic:baseline-lock">
<path id="Vector" d="M15 6.33334H14.1666V4.75001C14.1666 2.56501 12.3 0.791672 9.99998 0.791672C7.69998 0.791672 5.83331 2.56501 5.83331 4.75001V6.33334H4.99998C4.08331 6.33334 3.33331 7.04584 3.33331 7.91667V15.8333C3.33331 16.7042 4.08331 17.4167 4.99998 17.4167H15C15.9166 17.4167 16.6666 16.7042 16.6666 15.8333V7.91667C16.6666 7.04584 15.9166 6.33334 15 6.33334ZM9.99998 13.4583C9.08331 13.4583 8.33331 12.7458 8.33331 11.875C8.33331 11.0042 9.08331 10.2917 9.99998 10.2917C10.9166 10.2917 11.6666 11.0042 11.6666 11.875C11.6666 12.7458 10.9166 13.4583 9.99998 13.4583ZM12.5833 6.33334H7.41665V4.75001C7.41665 3.39626 8.57498 2.29584 9.99998 2.29584C11.425 2.29584 12.5833 3.39626 12.5833 4.75001V6.33334Z" fill="#69717C"/>
</g>
</svg>
