<svg width="32" height="32" viewBox="0 0 32 32" fill="none" xmlns="http://www.w3.org/2000/svg">
<path id="Vector" d="M15.92 25.6C16.48 25.6 16.9536 25.4064 17.3408 25.0192C17.728 24.632 17.9211 24.1589 17.92 23.6C17.92 23.04 17.7269 22.5664 17.3408 22.1792C16.9547 21.792 16.4811 21.5989 15.92 21.6C15.36 21.6 14.8869 21.7936 14.5008 22.1808C14.1147 22.568 13.9211 23.0411 13.92 23.6C13.92 24.16 14.1136 24.6336 14.5008 25.0208C14.888 25.408 15.3611 25.6011 15.92 25.6ZM14.48 19.44H17.44C17.44 18.56 17.5403 17.8667 17.7408 17.36C17.9413 16.8533 18.5077 16.16 19.44 15.28C20.1333 14.5867 20.68 13.9264 21.08 13.2992C21.48 12.672 21.68 11.9189 21.68 11.04C21.68 9.54667 21.1333 8.4 20.04 7.6C18.9467 6.8 17.6533 6.4 16.16 6.4C14.64 6.4 13.4064 6.8 12.4592 7.6C11.512 8.4 10.8523 9.36 10.48 10.48L13.12 11.52C13.2533 11.04 13.5536 10.52 14.0208 9.96C14.488 9.4 15.2011 9.12 16.16 9.12C17.0133 9.12 17.6533 9.3536 18.08 9.8208C18.5067 10.288 18.72 10.8011 18.72 11.36C18.72 11.8933 18.56 12.3936 18.24 12.8608C17.92 13.328 17.52 13.7611 17.04 14.16C15.8667 15.2 15.1467 15.9867 14.88 16.52C14.6133 17.0533 14.48 18.0267 14.48 19.44ZM16 32C13.7867 32 11.7067 31.5797 9.76 30.7392C7.81333 29.8987 6.12 28.7589 4.68 27.32C3.24 25.88 2.10027 24.1867 1.2608 22.24C0.421333 20.2933 0.00106667 18.2133 0 16C0 13.7867 0.420267 11.7067 1.2608 9.76C2.10133 7.81333 3.24107 6.12 4.68 4.68C6.12 3.24 7.81333 2.10027 9.76 1.2608C11.7067 0.421333 13.7867 0.00106667 16 0C18.2133 0 20.2933 0.420267 22.24 1.2608C24.1867 2.10133 25.88 3.24107 27.32 4.68C28.76 6.12 29.9003 7.81333 30.7408 9.76C31.5813 11.7067 32.0011 13.7867 32 16C32 18.2133 31.5797 20.2933 30.7392 22.24C29.8987 24.1867 28.7589 25.88 27.32 27.32C25.88 28.76 24.1867 29.9003 22.24 30.7408C20.2933 31.5813 18.2133 32.0011 16 32ZM16 28.8C19.5733 28.8 22.6 27.56 25.08 25.08C27.56 22.6 28.8 19.5733 28.8 16C28.8 12.4267 27.56 9.4 25.08 6.92C22.6 4.44 19.5733 3.2 16 3.2C12.4267 3.2 9.4 4.44 6.92 6.92C4.44 9.4 3.2 12.4267 3.2 16C3.2 19.5733 4.44 22.6 6.92 25.08C9.4 27.56 12.4267 28.8 16 28.8Z" fill="#F8F8F8"/>
</svg>
