<svg width="19" height="18" viewBox="0 0 19 18" fill="none" xmlns="http://www.w3.org/2000/svg">
<g id="uiw:mail">
<path id="Vector" fill-rule="evenodd" clip-rule="evenodd" d="M6.8134 10.2006L9.5019 11.9421L12.0935 10.2483L17.9028 15.678C17.7498 15.7248 17.5864 15.75 17.4163 15.75H1.58365C1.37465 15.75 1.17515 15.7113 0.991801 15.642L6.8134 10.2006ZM19 5.7384V14.2497C19 14.472 18.9487 14.6826 18.8575 14.8725L13.1632 9.5499L19 5.7384ZM8.96422e-07 5.7861L5.7399 9.5049L0.100701 14.7771C0.0339119 14.6085 -0.000201622 14.4298 8.96422e-07 14.2497V5.7861ZM17.4163 2.25C18.2903 2.25 19 2.9214 19 3.7503V4.2777L9.4981 10.4832L8.96422e-07 4.329V3.7503C8.96422e-07 2.9223 0.708701 2.25 1.58365 2.25H17.4163Z" fill="#69717C"/>
</g>
</svg>
