<svg width="30" height="30" viewBox="0 0 30 30" fill="none" xmlns="http://www.w3.org/2000/svg">
<path id="Vector" d="M29 29L19.6667 19.6667M1 11.8889C1 13.3188 1.28165 14.7348 1.82887 16.0559C2.37609 17.377 3.17815 18.5774 4.18928 19.5885C5.20041 20.5996 6.40079 21.4017 7.72189 21.9489C9.04299 22.4961 10.4589 22.7778 11.8889 22.7778C13.3188 22.7778 14.7348 22.4961 16.0559 21.9489C17.377 21.4017 18.5774 20.5996 19.5885 19.5885C20.5996 18.5774 21.4017 17.377 21.9489 16.0559C22.4961 14.7348 22.7778 13.3188 22.7778 11.8889C22.7778 10.4589 22.4961 9.04299 21.9489 7.72189C21.4017 6.40079 20.5996 5.20041 19.5885 4.18928C18.5774 3.17815 17.377 2.37609 16.0559 1.82887C14.7348 1.28165 13.3188 1 11.8889 1C10.4589 1 9.04299 1.28165 7.72189 1.82887C6.40079 2.37609 5.20041 3.17815 4.18928 4.18928C3.17815 5.20041 2.37609 6.40079 1.82887 7.72189C1.28165 9.04299 1 10.4589 1 11.8889Z" stroke="#F8F8F8" stroke-width="2" stroke-linecap="round" stroke-linejoin="round"/>
</svg>
